<svg id="Layer_1" data-name="Layer 1" xmlns="http://www.w3.org/2000/svg" xmlns:xlink="http://www.w3.org/1999/xlink" viewBox="0 0 500 500"><defs><style>.cls-1{fill:none;}.cls-2{clip-path:url(#clip-path);}.cls-3{fill:url(#linear-gradient);}.cls-4{clip-path:url(#clip-path-2);}.cls-5{fill:url(#linear-gradient-2);}.cls-6{clip-path:url(#clip-path-3);}.cls-7{fill:url(#radial-gradient);}.cls-8{clip-path:url(#clip-path-4);}.cls-9{fill:url(#radial-gradient-2);}.cls-10{clip-path:url(#clip-path-5);}.cls-11{fill:url(#radial-gradient-3);}.cls-12{clip-path:url(#clip-path-6);}.cls-13{fill:url(#radial-gradient-4);}.cls-14{clip-path:url(#clip-path-7);}.cls-15{fill:url(#radial-gradient-5);}</style><clipPath id="clip-path"><path class="cls-1" d="M185.32,260.37S141.67,144,224.53,61.14l-83.48-1.27s-30.36,122.07,44.27,200.5"/></clipPath><linearGradient id="linear-gradient" x1="-154.19" y1="557.54" x2="-145.24" y2="557.54" gradientTransform="matrix(-31, 0, 0, 31, -4432.59, -17125.84)" gradientUnits="userSpaceOnUse"><stop offset="0" stop-color="#f9c929"/><stop offset="0.01" stop-color="#f9c929"/><stop offset="0.06" stop-color="#f9d247"/><stop offset="0.17" stop-color="#fae793"/><stop offset="0.25" stop-color="#fbf8cd"/><stop offset="0.29" stop-color="#f8f3c5"/><stop offset="0.36" stop-color="#f0e5b0"/><stop offset="0.43" stop-color="#e2ce8c"/><stop offset="0.52" stop-color="#d0ae5c"/><stop offset="0.6" stop-color="#be8f2d"/><stop offset="0.61" stop-color="#c19434"/><stop offset="0.79" stop-color="#e0c26e"/><stop offset="0.87" stop-color="#ecd485"/><stop offset="0.93" stop-color="#f4e6aa"/><stop offset="1" stop-color="#fbf8cd"/></linearGradient><clipPath id="clip-path-2"><path class="cls-1" d="M226.42,436.82S334,448.2,379.48,388.75c0,0,16.44-117-60.71-167.6,0,0,46.16,103.73-92.35,215.67"/></clipPath><linearGradient id="linear-gradient-2" x1="-152.66" y1="558.84" x2="-143.71" y2="558.84" gradientTransform="matrix(-93.72, 0, 0, 93.72, -13471.86, -52039.21)" xlink:href="#linear-gradient"/><clipPath id="clip-path-3"><path class="cls-1" d="M70.63,61.08l-.84,196.83s52.28,56.75,113.84,58.44c0,0-106.67-92.44-77.17-255.27Z"/></clipPath><radialGradient id="radial-gradient" cx="-130.76" cy="560.9" r="6.59" gradientTransform="matrix(15.01, 0, 0, -15.01, 2088.84, 8605.51)" gradientUnits="userSpaceOnUse"><stop offset="0" stop-color="#c3c4c6"/><stop offset="0.01" stop-color="#c3c4c6"/><stop offset="0.3" stop-color="#bcbcbe"/><stop offset="0.66" stop-color="#a6a7aa"/><stop offset="1" stop-color="#989a9d"/></radialGradient><clipPath id="clip-path-4"><path class="cls-1" d="M263.74,61.77C217.56,91.49,203,152.22,203,152.22c96.76-69.57,196.06-17.09,196.06-17.09C347.68,66,282.74,61.69,267.2,61.69c-2.25,0-3.46.08-3.46.08"/></clipPath><radialGradient id="radial-gradient-2" cx="-113.81" cy="568.03" r="6.59" gradientTransform="matrix(11.59, 0, 0, -11.59, 1620.61, 6692.7)" xlink:href="#radial-gradient"/><clipPath id="clip-path-5"><path class="cls-1" d="M241,162.33C420,194,406,352.71,406,352.71c40.47-65.79,16.44-167,16.44-167-37.34-35-74.36-45.4-105.14-45.4-44.81,0-76.37,22-76.37,22"/></clipPath><radialGradient id="radial-gradient-3" cx="-119.38" cy="557.62" r="6.59" gradientTransform="matrix(15.25, 0, 0, -15.25, 2155.72, 8749.52)" xlink:href="#radial-gradient"/><clipPath id="clip-path-6"><path class="cls-1" d="M69.57,390.65l.63,46.17,112,1.27s62.6-41.12,91.08-93.61c0,0-59.46,60.72-203.66,46.17"/></clipPath><radialGradient id="radial-gradient-4" cx="-124.09" cy="547.59" r="6.59" gradientTransform="matrix(12.03, 0, 0, -12.03, 1664.62, 6980.6)" xlink:href="#radial-gradient"/><clipPath id="clip-path-7"><path class="cls-1" d="M70.2,361.56S141.67,378,214.41,347.64c0,0-83.49-4.43-143.57-53.76Z"/></clipPath><radialGradient id="radial-gradient-5" cx="-118.78" cy="549.93" r="6.59" gradientTransform="matrix(8.66, 0, 0, -8.66, 1170.51, 5090.16)" xlink:href="#radial-gradient"/></defs><g class="cls-2"><rect class="cls-3" x="110.69" y="59.87" width="113.84" height="200.5"/></g><g class="cls-4"><rect class="cls-5" x="226.42" y="221.15" width="169.5" height="227.05"/></g><g class="cls-6"><rect class="cls-7" x="69.79" y="61.08" width="113.84" height="255.27"/></g><g class="cls-8"><rect class="cls-9" x="203.02" y="61.69" width="196.06" height="90.53"/></g><g class="cls-10"><rect class="cls-11" x="240.97" y="140.33" width="205.55" height="212.38"/></g><g class="cls-12"><rect class="cls-13" x="69.57" y="344.48" width="203.67" height="93.6"/></g><g class="cls-14"><rect class="cls-15" x="70.2" y="293.88" width="144.2" height="84.11"/></g></svg>