<svg id="Layer_1" data-name="Layer 1" xmlns="http://www.w3.org/2000/svg" viewBox="0 0 510 170"><defs><style>.cls-1{fill:#c3922e;}.cls-2{fill:#cbccc6;}</style></defs><path class="cls-1" d="M104.5,166H3.5V4h101Zm-98-3h95V7H6.5Z"/><rect class="cls-1" x="3.5" y="82" width="99" height="3"/><path class="cls-1" d="M221.5,166h-101V4h101Zm-98-3h95V7h-95Z"/><rect class="cls-1" x="120.5" y="82" width="99" height="3"/><path class="cls-1" d="M389.5,166h-101V4h101Zm-98-3h95V7h-95Z"/><rect class="cls-1" x="288.5" y="82" width="99" height="3"/><path class="cls-1" d="M506.5,166h-101V4h101Zm-98-3h95V7h-95Z"/><rect class="cls-1" x="405.5" y="82" width="99" height="3"/><path class="cls-2" d="M264.38,111.17a8.41,8.41,0,0,0-2.69-6.1,10.64,10.64,0,0,0-6.58-2.44,9.7,9.7,0,0,0-6.59,2.32,8.47,8.47,0,0,0-2.93,6.22,8.1,8.1,0,0,0,2.93,6.34,8.88,8.88,0,0,0,6.59,2.44,9,9,0,0,0,6.46-2.56A8.12,8.12,0,0,0,264.38,111.17Zm0-42.21a7.41,7.41,0,0,0-.73-3.3,8.43,8.43,0,0,0-2-2.93,9.73,9.73,0,0,0-6.58-2.31,9,9,0,0,0-6.71,2.44,7.75,7.75,0,0,0-2.81,6.1,8.53,8.53,0,0,0,2.81,6.1,9.35,9.35,0,0,0,6.71,2.68,10.35,10.35,0,0,0,6.58-2.56A9.43,9.43,0,0,0,264.38,69Z"/></svg>