<svg id="Layer_2" data-name="Layer 2" xmlns="http://www.w3.org/2000/svg" viewBox="0 0 1200 1400"><defs><style>.cls-1{fill:#fff;}.cls-2{fill:#c99530;}</style></defs><path class="cls-1" d="M1130,53a17,17,0,0,1,17,17V1330a17,17,0,0,1-17,17H70a17,17,0,0,1-17-17V70A17,17,0,0,1,70,53H1130m0-3H70A20,20,0,0,0,50,70V1330a20,20,0,0,0,20,20H1130a20,20,0,0,0,20-20V70a20,20,0,0,0-20-20Z"/><path class="cls-2" d="M800,563a47,47,0,1,1-47,47,47,47,0,0,1,47-47m0-3a50,50,0,1,0,50,50,50,50,0,0,0-50-50Z"/><path class="cls-2" d="M600,563a47,47,0,1,1-47,47,47,47,0,0,1,47-47m0-3a50,50,0,1,0,50,50,50,50,0,0,0-50-50Z"/><path class="cls-2" d="M200,563a47,47,0,1,1-47,47,47,47,0,0,1,47-47m0-3a50,50,0,1,0,50,50,50,50,0,0,0-50-50Z"/><path class="cls-2" d="M400,563a47,47,0,1,1-47,47,47,47,0,0,1,47-47m0-3a50,50,0,1,0,50,50,50,50,0,0,0-50-50Z"/><path class="cls-2" d="M1000,563a47,47,0,1,1-47,47,47,47,0,0,1,47-47m0-3a50,50,0,1,0,50,50,50,50,0,0,0-50-50Z"/><path class="cls-2" d="M800,363a47,47,0,1,1-47,47,47,47,0,0,1,47-47m0-3a50,50,0,1,0,50,50,50,50,0,0,0-50-50Z"/><path class="cls-2" d="M600,363a47,47,0,1,1-47,47,47,47,0,0,1,47-47m0-3a50,50,0,1,0,50,50,50,50,0,0,0-50-50Z"/><path class="cls-2" d="M200,363a47,47,0,1,1-47,47,47,47,0,0,1,47-47m0-3a50,50,0,1,0,50,50,50,50,0,0,0-50-50Z"/><path class="cls-2" d="M400,363a47,47,0,1,1-47,47,47,47,0,0,1,47-47m0-3a50,50,0,1,0,50,50,50,50,0,0,0-50-50Z"/><path class="cls-2" d="M1000,363a47,47,0,1,1-47,47,47,47,0,0,1,47-47m0-3a50,50,0,1,0,50,50,50,50,0,0,0-50-50Z"/><circle class="cls-2" cx="800" cy="810" r="48.5"/><path class="cls-2" d="M800,763a47,47,0,1,1-47,47,47,47,0,0,1,47-47m0-3a50,50,0,1,0,50,50,50,50,0,0,0-50-50Z"/><circle class="cls-2" cx="600" cy="810" r="48.5"/><path class="cls-2" d="M600,763a47,47,0,1,1-47,47,47,47,0,0,1,47-47m0-3a50,50,0,1,0,50,50,50,50,0,0,0-50-50Z"/><circle class="cls-2" cx="200" cy="810" r="48.5"/><path class="cls-2" d="M200,763a47,47,0,1,1-47,47,47,47,0,0,1,47-47m0-3a50,50,0,1,0,50,50,50,50,0,0,0-50-50Z"/><circle class="cls-2" cx="400" cy="810" r="48.5"/><path class="cls-2" d="M400,763a47,47,0,1,1-47,47,47,47,0,0,1,47-47m0-3a50,50,0,1,0,50,50,50,50,0,0,0-50-50Z"/><circle class="cls-2" cx="1000" cy="810" r="48.5"/><path class="cls-2" d="M1000,763a47,47,0,1,1-47,47,47,47,0,0,1,47-47m0-3a50,50,0,1,0,50,50,50,50,0,0,0-50-50Z"/><circle class="cls-2" cx="800" cy="1010" r="48.5"/><path class="cls-2" d="M800,963a47,47,0,1,1-47,47,47,47,0,0,1,47-47m0-3a50,50,0,1,0,50,50,50,50,0,0,0-50-50Z"/><circle class="cls-2" cx="600" cy="1010" r="48.5"/><path class="cls-2" d="M600,963a47,47,0,1,1-47,47,47,47,0,0,1,47-47m0-3a50,50,0,1,0,50,50,50,50,0,0,0-50-50Z"/><circle class="cls-2" cx="200" cy="1010" r="48.5"/><path class="cls-2" d="M200,963a47,47,0,1,1-47,47,47,47,0,0,1,47-47m0-3a50,50,0,1,0,50,50,50,50,0,0,0-50-50Z"/><circle class="cls-2" cx="400" cy="1010" r="48.5"/><path class="cls-2" d="M400,963a47,47,0,1,1-47,47,47,47,0,0,1,47-47m0-3a50,50,0,1,0,50,50,50,50,0,0,0-50-50Z"/><circle class="cls-2" cx="1000" cy="1010" r="48.5"/><path class="cls-2" d="M1000,963a47,47,0,1,1-47,47,47,47,0,0,1,47-47m0-3a50,50,0,1,0,50,50,50,50,0,0,0-50-50Z"/><circle class="cls-2" cx="800" cy="1210" r="48.5"/><path class="cls-2" d="M800,1163a47,47,0,1,1-47,47,47,47,0,0,1,47-47m0-3a50,50,0,1,0,50,50,50,50,0,0,0-50-50Z"/><circle class="cls-2" cx="600" cy="1210" r="48.5"/><path class="cls-2" d="M600,1163a47,47,0,1,1-47,47,47,47,0,0,1,47-47m0-3a50,50,0,1,0,50,50,50,50,0,0,0-50-50Z"/><circle class="cls-2" cx="200" cy="1210" r="48.5"/><path class="cls-2" d="M200,1163a47,47,0,1,1-47,47,47,47,0,0,1,47-47m0-3a50,50,0,1,0,50,50,50,50,0,0,0-50-50Z"/><circle class="cls-2" cx="400" cy="1210" r="48.5"/><path class="cls-2" d="M400,1163a47,47,0,1,1-47,47,47,47,0,0,1,47-47m0-3a50,50,0,1,0,50,50,50,50,0,0,0-50-50Z"/><circle class="cls-2" cx="1000" cy="1210" r="48.5"/><path class="cls-2" d="M1000,1163a47,47,0,1,1-47,47,47,47,0,0,1,47-47m0-3a50,50,0,1,0,50,50,50,50,0,0,0-50-50Z"/><path class="cls-1" d="M204.3,217.77c14.5,0,23.5,6.6,23.5,17.5,0,7.9-4.7,13.8-12.3,15.6,9.4,1.6,15,8.3,15,17.7,0,12-9.7,19.2-25.5,19.2H173.9v-70Zm-18.6,29h18c7.5,0,12-3.5,12-9.4s-4.5-9.1-12-9.1h-18Zm0,30.5h18c9.2,0,14.7-3.6,14.7-10.2,0-6.2-5.5-9.9-14.7-9.9h-18Z"/><path class="cls-1" d="M830,253.37v25.8a47.52,47.52,0,0,1-27.21,9.1c-20.7,0-36.8-15.5-36.8-35.5s16.3-35.3,37.5-35.3a42,42,0,0,1,26.9,9.8l-6.7,8.7a30.42,30.42,0,0,0-20.2-8c-14.3,0-25.5,10.9-25.5,24.8s11.3,24.9,25.6,24.9a32.61,32.61,0,0,0,16.1-4.8v-19.5Z"/><path class="cls-1" d="M618.7,287.77l-37.3-50.2v50.2H569.6v-70h11.6l37.5,50.3v-50.3h11.6v70Z"/><path class="cls-1" d="M394.1,287.77v-70h11.8v70Z"/><path class="cls-1" d="M1037.1,252.77c0,20-16.2,35.5-37.1,35.5s-37.1-15.5-37.1-35.5,16.2-35.3,37.1-35.3S1037.1,232.77,1037.1,252.77Zm-62.2,0a25.09,25.09,0,0,0,25.2,24.9,24.8,24.8,0,1,0-25.2-24.9Z"/></svg>