<svg id="Layer_2" data-name="Layer 2" xmlns="http://www.w3.org/2000/svg" viewBox="0 0 1200 1400"><defs><style>.cls-1,.cls-3{fill:#fff;}.cls-2{fill:#c99530;}.cls-3{font-size:100px;font-family:Montserrat-Regular, Montserrat;}</style></defs><path class="cls-1" d="M1130,53a17,17,0,0,1,17,17V1330a17,17,0,0,1-17,17H70a17,17,0,0,1-17-17V70A17,17,0,0,1,70,53H1130m0-3H70A20,20,0,0,0,50,70V1330a20,20,0,0,0,20,20H1130a20,20,0,0,0,20-20V70a20,20,0,0,0-20-20Z"/><circle class="cls-2" cx="800" cy="610" r="48.5"/><path class="cls-2" d="M800,563a47,47,0,1,1-47,47,47,47,0,0,1,47-47m0-3a50,50,0,1,0,50,50,50,50,0,0,0-50-50Z"/><circle class="cls-2" cx="600" cy="610" r="48.5"/><path class="cls-2" d="M600,563a47,47,0,1,1-47,47,47,47,0,0,1,47-47m0-3a50,50,0,1,0,50,50,50,50,0,0,0-50-50Z"/><path class="cls-2" d="M200,563a47,47,0,1,1-47,47,47,47,0,0,1,47-47m0-3a50,50,0,1,0,50,50,50,50,0,0,0-50-50Z"/><circle class="cls-2" cx="400" cy="610" r="48.5"/><path class="cls-2" d="M400,563a47,47,0,1,1-47,47,47,47,0,0,1,47-47m0-3a50,50,0,1,0,50,50,50,50,0,0,0-50-50Z"/><path class="cls-2" d="M1000,563a47,47,0,1,1-47,47,47,47,0,0,1,47-47m0-3a50,50,0,1,0,50,50,50,50,0,0,0-50-50Z"/><path class="cls-2" d="M800,363a47,47,0,1,1-47,47,47,47,0,0,1,47-47m0-3a50,50,0,1,0,50,50,50,50,0,0,0-50-50Z"/><path class="cls-2" d="M600,363a47,47,0,1,1-47,47,47,47,0,0,1,47-47m0-3a50,50,0,1,0,50,50,50,50,0,0,0-50-50Z"/><path class="cls-2" d="M200,363a47,47,0,1,1-47,47,47,47,0,0,1,47-47m0-3a50,50,0,1,0,50,50,50,50,0,0,0-50-50Z"/><path class="cls-2" d="M400,363a47,47,0,1,1-47,47,47,47,0,0,1,47-47m0-3a50,50,0,1,0,50,50,50,50,0,0,0-50-50Z"/><path class="cls-2" d="M1000,363a47,47,0,1,1-47,47,47,47,0,0,1,47-47m0-3a50,50,0,1,0,50,50,50,50,0,0,0-50-50Z"/><circle class="cls-2" cx="800" cy="810" r="48.5"/><path class="cls-2" d="M800,763a47,47,0,1,1-47,47,47,47,0,0,1,47-47m0-3a50,50,0,1,0,50,50,50,50,0,0,0-50-50Z"/><circle class="cls-2" cx="600" cy="810" r="48.5"/><path class="cls-2" d="M600,763a47,47,0,1,1-47,47,47,47,0,0,1,47-47m0-3a50,50,0,1,0,50,50,50,50,0,0,0-50-50Z"/><path class="cls-2" d="M200,763a47,47,0,1,1-47,47,47,47,0,0,1,47-47m0-3a50,50,0,1,0,50,50,50,50,0,0,0-50-50Z"/><circle class="cls-2" cx="400" cy="810" r="48.5"/><path class="cls-2" d="M400,763a47,47,0,1,1-47,47,47,47,0,0,1,47-47m0-3a50,50,0,1,0,50,50,50,50,0,0,0-50-50Z"/><path class="cls-2" d="M1000,763a47,47,0,1,1-47,47,47,47,0,0,1,47-47m0-3a50,50,0,1,0,50,50,50,50,0,0,0-50-50Z"/><circle class="cls-2" cx="800" cy="1010" r="48.5"/><path class="cls-2" d="M800,963a47,47,0,1,1-47,47,47,47,0,0,1,47-47m0-3a50,50,0,1,0,50,50,50,50,0,0,0-50-50Z"/><circle class="cls-2" cx="600" cy="1010" r="48.5"/><path class="cls-2" d="M600,963a47,47,0,1,1-47,47,47,47,0,0,1,47-47m0-3a50,50,0,1,0,50,50,50,50,0,0,0-50-50Z"/><path class="cls-2" d="M200,963a47,47,0,1,1-47,47,47,47,0,0,1,47-47m0-3a50,50,0,1,0,50,50,50,50,0,0,0-50-50Z"/><circle class="cls-2" cx="400" cy="1010" r="48.5"/><path class="cls-2" d="M400,963a47,47,0,1,1-47,47,47,47,0,0,1,47-47m0-3a50,50,0,1,0,50,50,50,50,0,0,0-50-50Z"/><path class="cls-2" d="M1000,963a47,47,0,1,1-47,47,47,47,0,0,1,47-47m0-3a50,50,0,1,0,50,50,50,50,0,0,0-50-50Z"/><path class="cls-2" d="M800,1163a47,47,0,1,1-47,47,47,47,0,0,1,47-47m0-3a50,50,0,1,0,50,50,50,50,0,0,0-50-50Z"/><path class="cls-2" d="M600,1163a47,47,0,1,1-47,47,47,47,0,0,1,47-47m0-3a50,50,0,1,0,50,50,50,50,0,0,0-50-50Z"/><path class="cls-2" d="M200,1163a47,47,0,1,1-47,47,47,47,0,0,1,47-47m0-3a50,50,0,1,0,50,50,50,50,0,0,0-50-50Z"/><path class="cls-2" d="M400,1163a47,47,0,1,1-47,47,47,47,0,0,1,47-47m0-3a50,50,0,1,0,50,50,50,50,0,0,0-50-50Z"/><path class="cls-2" d="M1000,1163a47,47,0,1,1-47,47,47,47,0,0,1,47-47m0-3a50,50,0,1,0,50,50,50,50,0,0,0-50-50Z"/><text class="cls-3" transform="translate(164.7 287.77)">B</text><text class="cls-3" transform="translate(762.55 287.77)">G</text><text class="cls-3" transform="translate(560.4 287.77)">N</text><text class="cls-3" transform="translate(384.9 287.77)">I</text><text class="cls-3" transform="translate(959.5 287.77)">O</text></svg>